<svg id="Layer_1" enable-background="new 0 0 512 512" height="512" viewBox="0 0 512 512" width="512" xmlns="http://www.w3.org/2000/svg"><path d="m412.13 96.991c2.232-5.474 3.47-11.456 3.47-17.725 0-25.989-21.144-47.133-47.133-47.133-6.391 0-12.616 1.278-18.363 3.711-11.794-12.454-28.333-19.778-45.904-19.778-13.082 0-25.754 4.124-36.281 11.492-14.836-17.336-36.545-27.558-60.119-27.558-23.578 0-45.289 10.221-60.127 27.559-10.525-7.369-23.194-11.492-36.272-11.492-17.573 0-34.115 7.323-45.91 19.778-5.746-2.433-11.969-3.711-18.356-3.711-25.99 0-47.135 21.143-47.135 47.133 0 20.745 13.479 38.391 32.134 44.672v308.795c0 43.787 35.407 79.266 79.266 79.266h192.8c43.775 0 79.267-35.41 79.267-79.267v-17.133h17.133c61.527 0 111.4-49.778 111.4-111.399v-96.4c0-57.944-44.035-105.101-99.87-110.81zm-58.663 335.742c0 27.198-22.01 49.267-49.267 49.267h-192.8c-27.214 0-49.267-22.006-49.267-49.267v-306.333h34.267v49.267c0 26.048 21.053 47.133 47.133 47.133 26.044 0 47.134-21.199 47.134-47.133v-49.267h34.267v161.733c0 25.989 21.144 47.133 47.133 47.133 26.044 0 47.134-21.199 47.134-47.133v-161.733h34.267v306.333zm15-336.333h-64.267c-8.284 0-15 6.716-15 15v176.733c0 9.392-7.631 17.133-17.134 17.133-9.447 0-17.133-7.686-17.133-17.133v-176.733c0-8.284-6.716-15-15-15h-64.267c-8.284 0-15 6.716-15 15v64.267c0 9.392-7.631 17.133-17.134 17.133-9.466 0-17.133-7.683-17.133-17.133v-64.267c0-8.284-6.716-15-15-15h-64.265c-9.447 0-17.134-7.686-17.134-17.133s7.687-17.133 17.134-17.133c4.392 0 8.571 1.668 11.77 4.695 3.366 3.188 8.02 4.638 12.599 3.934 4.582-.707 8.58-3.492 10.83-7.546 5.872-10.579 17.01-17.15 29.068-17.15 10.648 0 20.396 4.937 26.744 13.545 3.102 4.205 8.167 6.49 13.374 6.04 5.206-.453 9.8-3.583 12.128-8.262 8.405-16.895 25.324-27.39 44.153-27.39 18.824 0 35.74 10.495 44.146 27.39 2.328 4.679 6.922 7.809 12.128 8.262 5.218.456 10.272-1.835 13.374-6.04 6.348-8.608 16.1-13.545 26.753-13.545 12.054 0 23.188 6.571 29.06 17.15 2.249 4.054 6.247 6.839 10.829 7.546 4.582.704 9.233-.745 12.6-3.934 3.197-3.027 7.381-4.695 11.778-4.695 9.447 0 17.133 7.686 17.133 17.133s-7.687 17.133-17.134 17.133zm15 94.267h17.133c9.436 0 17.134 7.69 17.134 17.133v96.4c0 9.393-7.631 17.133-17.134 17.133h-17.133zm98.533 113.533c0 44.956-36.373 81.399-81.4 81.399h-17.133v-34.267h17.133c25.611 0 47.134-20.693 47.134-47.133v-96.4c0-25.978-21.151-47.133-47.134-47.133h-17.133v-34.266h17.133c44.942 0 81.4 36.376 81.4 81.399z"/></svg>