<?xml version="1.0" encoding="utf-8"?>
<!-- Generator: Adobe Illustrator 21.0.0, SVG Export Plug-In . SVG Version: 6.00 Build 0)  -->
<svg version="1.1" id="Layer_1" xmlns="http://www.w3.org/2000/svg" xmlns:xlink="http://www.w3.org/1999/xlink" x="0px" y="0px"
	 viewBox="0 0 512 512" style="enable-background:new 0 0 512 512;" xml:space="preserve">
<style type="text/css">
	.st0{fill:#FFFFFF;}
</style>
<path class="st0" d="M412.1,97c2.2-5.5,3.5-11.5,3.5-17.7c0-26-21.1-47.1-47.1-47.1c-6.4,0-12.6,1.3-18.4,3.7
	c-11.8-12.5-28.3-19.8-45.9-19.8c-13.1,0-25.8,4.1-36.3,11.5C253.1,10.2,231.4,0,207.8,0c-23.6,0-45.3,10.2-60.1,27.6
	c-10.5-7.4-23.2-11.5-36.3-11.5c-17.6,0-34.1,7.3-45.9,19.8c-5.7-2.4-12-3.7-18.4-3.7C21.1,32.1,0,53.3,0,79.3
	c0,20.7,13.5,38.4,32.1,44.7v308.8c0,43.8,35.4,79.3,79.3,79.3h192.8c43.8,0,79.3-35.4,79.3-79.3v-17.1h17.1
	c61.5,0,111.4-49.8,111.4-111.4v-96.4C512,149.9,468,102.7,412.1,97z M353.5,432.7c0,27.2-22,49.3-49.3,49.3H111.4
	c-27.2,0-49.3-22-49.3-49.3V126.4h34.3v49.3c0,26,21.1,47.1,47.1,47.1c26,0,47.1-21.2,47.1-47.1v-49.3h34.3v161.7
	c0,26,21.1,47.1,47.1,47.1c26,0,47.1-21.2,47.1-47.1V126.4h34.3L353.5,432.7L353.5,432.7z M368.5,96.4h-64.3c-8.3,0-15,6.7-15,15
	v176.7c0,9.4-7.6,17.1-17.1,17.1c-9.4,0-17.1-7.7-17.1-17.1V111.4c0-8.3-6.7-15-15-15h-64.3c-8.3,0-15,6.7-15,15v64.3
	c0,9.4-7.6,17.1-17.1,17.1c-9.5,0-17.1-7.7-17.1-17.1v-64.3c0-8.3-6.7-15-15-15H47.1c-9.4,0-17.1-7.7-17.1-17.1s7.7-17.1,17.1-17.1
	c4.4,0,8.6,1.7,11.8,4.7c3.4,3.2,8,4.6,12.6,3.9c4.6-0.7,8.6-3.5,10.8-7.5c5.9-10.6,17-17.1,29.1-17.1c10.6,0,20.4,4.9,26.7,13.5
	c3.1,4.2,8.2,6.5,13.4,6c5.2-0.5,9.8-3.6,12.1-8.3C172.1,40.5,189,30,207.8,30c18.8,0,35.7,10.5,44.1,27.4c2.3,4.7,6.9,7.8,12.1,8.3
	c5.2,0.5,10.3-1.8,13.4-6c6.3-8.6,16.1-13.5,26.8-13.5c12.1,0,23.2,6.6,29.1,17.2c2.2,4.1,6.2,6.8,10.8,7.5
	c4.6,0.7,9.2-0.7,12.6-3.9c3.2-3,7.4-4.7,11.8-4.7c9.4,0,17.1,7.7,17.1,17.1S377.9,96.4,368.5,96.4z M383.5,190.7h17.1
	c9.4,0,17.1,7.7,17.1,17.1v96.4c0,9.4-7.6,17.1-17.1,17.1h-17.1V190.7z M482,304.2c0,45-36.4,81.4-81.4,81.4h-17.1v-34.3h17.1
	c25.6,0,47.1-20.7,47.1-47.1v-96.4c0-26-21.2-47.1-47.1-47.1h-17.1v-34.3h17.1c44.9,0,81.4,36.4,81.4,81.4V304.2z"/>
</svg>
